<svg width="28" height="27" viewBox="0 0 28 27" fill="none" xmlns="http://www.w3.org/2000/svg">
<g clip-path="url(#clip0_492_2851)">
<path d="M14.25 24.75C8.03663 24.75 3 19.7134 3 13.5C3 7.28663 8.03663 2.25 14.25 2.25C20.4634 2.25 25.5 7.28663 25.5 13.5C25.5 19.7134 20.4634 24.75 14.25 24.75ZM8.63963 20.538C10.2321 21.8112 12.2111 22.5032 14.25 22.5C16.4663 22.5 18.4946 21.699 20.0629 20.3715C19.3302 19.6197 18.4542 19.0225 17.4867 18.6152C16.5191 18.2078 15.4798 17.9986 14.43 18C13.3417 17.9987 12.2649 18.2237 11.2681 18.6606C10.2714 19.0975 9.37625 19.7368 8.63963 20.538V20.538ZM7.068 18.9225C8.01351 17.9191 9.1545 17.1199 10.4207 16.5743C11.6868 16.0287 13.0513 15.7482 14.43 15.75C15.7594 15.7483 17.076 16.0092 18.3042 16.5177C19.5325 17.0262 20.6482 17.7723 21.5872 18.7133C22.5503 17.3578 23.1191 15.762 23.2304 14.1029C23.3417 12.4438 22.9912 10.7864 22.2178 9.31439C21.4444 7.8424 20.2783 6.61345 18.849 5.76388C17.4196 4.9143 15.7828 4.47732 14.1202 4.50141C12.4576 4.5255 10.8341 5.00972 9.42996 5.90035C8.0258 6.79098 6.89583 8.0532 6.1654 9.54698C5.43498 11.0408 5.13266 12.7077 5.29198 14.3628C5.4513 16.018 6.06604 17.5966 7.068 18.9236V18.9225ZM14.25 14.625C13.0565 14.625 11.9119 14.1509 11.068 13.307C10.2241 12.4631 9.75 11.3185 9.75 10.125C9.75 8.93153 10.2241 7.78693 11.068 6.94302C11.9119 6.09911 13.0565 5.625 14.25 5.625C15.4435 5.625 16.5881 6.09911 17.432 6.94302C18.2759 7.78693 18.75 8.93153 18.75 10.125C18.75 11.3185 18.2759 12.4631 17.432 13.307C16.5881 14.1509 15.4435 14.625 14.25 14.625ZM14.25 12.375C14.8467 12.375 15.419 12.1379 15.841 11.716C16.2629 11.294 16.5 10.7217 16.5 10.125C16.5 9.52826 16.2629 8.95597 15.841 8.53401C15.419 8.11205 14.8467 7.875 14.25 7.875C13.6533 7.875 13.081 8.11205 12.659 8.53401C12.2371 8.95597 12 9.52826 12 10.125C12 10.7217 12.2371 11.294 12.659 11.716C13.081 12.1379 13.6533 12.375 14.25 12.375Z" fill="#F6F0F0"/>
</g>
<defs>
<clipPath id="clip0_492_2851">
<rect width="27" height="27" fill="white" transform="translate(0.75)"/>
</clipPath>
</defs>
</svg>
