<svg width="28" height="27" viewBox="0 0 28 27" fill="none" xmlns="http://www.w3.org/2000/svg">
<path d="M8.3501 17.55H20.5001C21.2426 17.55 21.8501 18.1575 21.8501 18.9C21.8501 19.6425 21.2426 20.25 20.5001 20.25H7.0001C6.2576 20.25 5.6501 19.6425 5.6501 18.9V5.4H2.9501C2.2076 5.4 1.6001 4.7925 1.6001 4.05C1.6001 3.3075 2.2076 2.7 2.9501 2.7H7.0001C7.7426 2.7 8.3501 3.3075 8.3501 4.05V6.75H25.9001L20.5001 16.2H8.3501V17.55ZM7.6751 21.6C8.7956 21.6 9.7001 22.5045 9.7001 23.625C9.7001 24.7455 8.7956 25.65 7.6751 25.65C6.5546 25.65 5.6501 24.7455 5.6501 23.625C5.6501 22.5045 6.5546 21.6 7.6751 21.6ZM19.8251 21.6C20.9456 21.6 21.8501 22.5045 21.8501 23.625C21.8501 24.7455 20.9456 25.65 19.8251 25.65C18.7046 25.65 17.8001 24.7455 17.8001 23.625C17.8001 22.5045 18.7046 21.6 19.8251 21.6Z" fill="#333333"/>
</svg>
