<?xml version="1.0" encoding="UTF-8"?>
<!DOCTYPE svg PUBLIC "-//W3C//DTD SVG 1.1//EN" "http://www.w3.org/Graphics/SVG/1.1/DTD/svg11.dtd">
<!-- Creator: CorelDRAW 2019 (64-Bit) -->
<svg xmlns="http://www.w3.org/2000/svg" xml:space="preserve" width="8915px" height="2160px" version="1.1" style="shape-rendering:geometricPrecision; text-rendering:geometricPrecision; image-rendering:optimizeQuality; fill-rule:evenodd; clip-rule:evenodd"
viewBox="0 0 8915 2159.89"
 xmlns:xlink="http://www.w3.org/1999/xlink"
 xmlns:xodm="http://www.corel.com/coreldraw/odm/2003">
 <defs>
  <style type="text/css">
   <![CDATA[
    .fil0 {fill:#00A2E9}
    .fil1 {fill:#18438E}
    .fil2 {fill:#1F387C}
   ]]>
  </style>
 </defs>
 <g id="Layer_x0020_1">
  <metadata id="CorelCorpID_0Corel-Layer"/>
  <path class="fil0" d="M777.86 508.33l609.26 0c327.08,0 450.24,165.58 431.22,409.23 -31.36,401.67 -274.21,623.77 -596.33,623.77l-162.62 0c-44.15,0 -73.86,29.19 -85.87,108.49l-69.77 460.47c-4.53,29.91 -20.26,47.48 -43.9,49.6l-382.02 0c-35.95,0 -48.74,-27.5 -39.33,-87.06l233.29 -1477.12c9.35,-59.19 41.73,-87.38 106.07,-87.38z"/>
  <path class="fil1" d="M3422.66 481.04c205.59,0 395.22,111.46 369.26,389.42 -30.77,329.49 -208.36,512.99 -487.65,513.75l-243.66 0c-35.12,0 -52.01,28.55 -61.22,87.34l-47.03 299.89c-7.09,45.28 -30.29,67.63 -64.69,67.63l-226.9 0c-36.19,0 -48.82,-23.12 -40.75,-74.83l187.57 -1202.1c9.22,-59.11 31.84,-81.1 71.92,-81.1l543.15 0zm-369.61 643.47l0 0 184.83 0.03c115.54,-4.36 192.38,-84.37 200.1,-228.77 4.77,-89.18 -55.44,-152.95 -151.31,-152.52l-174 0.79 -59.62 380.47zm1355.67 622.41l0 0c20.71,-18.81 41.88,-28.66 38.8,-5.39l-7.36 55.7c-3.85,29.03 7.72,44.55 34.81,44.55l201.58 0c33.9,0 50.48,-13.74 58.84,-66.22l124.22 -779.68c6.24,-39.17 -3.23,-58.39 -33,-58.39l-221.62 0c-20,0 -29.67,11.23 -34.9,41.75l-8.22 47.99c-4.29,25.05 -15.75,29.38 -26.4,4.19 -37.64,-89.07 -133.54,-128.99 -268.05,-126.23 -310.94,6.4 -520.57,242.43 -542.99,545 -17.34,234.06 150.41,417.84 371.42,417.84 160.36,-0.01 232.1,-47.82 312.87,-121.11zm-168.68 -119.78l0 0c-133.84,0 -227.13,-106.74 -207.66,-237.62 19.48,-130.87 144.52,-237.62 278.36,-237.62 133.83,0 227.12,106.75 207.65,237.62 -19.48,130.88 -144.5,237.62 -278.35,237.62zm1014.33 -692.15l0 0 -203.65 0c-42.21,0 -59.36,30.88 -45.95,70.16l253.78 743.23 -250.07 353.49c-20.86,29.5 -4.77,56.49 24.67,56.49l229.79 0c34.3,0 51.02,-8.75 68.29,-33.52l780.54 -1119.69c24.05,-34.49 12.7,-70.58 -26.71,-70.62l-217.24 -0.22c-37.3,-0.04 -52.27,14.71 -73.66,45.75l-325.58 472.34 -144.84 -473.16c-8.93,-29.17 -30.22,-44.25 -69.37,-44.25z"/>
  <path class="fil0" d="M6924.11 481.04c205.59,0 395.22,111.46 369.26,389.42 -30.78,329.49 -208.36,512.99 -487.66,513.75l-243.65 0c-35.12,0 -52.01,28.55 -61.22,87.34l-47.02 299.89c-7.1,45.28 -30.3,67.63 -64.7,67.63l-226.9 0c-36.19,0 -48.81,-23.12 -40.75,-74.83l187.57 -1202.1c9.22,-59.11 31.83,-81.1 71.92,-81.1l543.15 0zm-369.62 643.47l0 0 184.84 0.03c115.54,-4.36 192.38,-84.37 200.1,-228.77 4.76,-89.18 -55.44,-152.95 -151.31,-152.52l-174 0.79 -59.63 380.47zm1355.68 622.41l0 0c20.72,-18.81 41.88,-28.66 38.81,-5.39l-7.37 55.7c-3.84,29.03 7.72,44.55 34.82,44.55l201.57 0c33.91,0 50.48,-13.74 58.84,-66.22l124.22 -779.68c6.24,-39.17 -3.23,-58.39 -33,-58.39l-221.61 0c-20,0 -29.68,11.23 -34.91,41.75l-8.22 47.99c-4.29,25.05 -15.75,29.38 -26.4,4.19 -37.64,-89.07 -133.54,-128.99 -268.05,-126.23 -310.94,6.4 -520.57,242.43 -542.98,545 -17.34,234.06 150.4,417.84 371.4,417.84 160.38,-0.01 232.11,-47.82 312.88,-121.11zm-168.68 -119.78l0 0c-133.84,0 -227.12,-106.74 -207.66,-237.62 19.48,-130.87 144.51,-237.62 278.36,-237.62 133.84,0 227.12,106.75 207.65,237.62 -19.47,130.88 -144.51,237.62 -278.35,237.62zm929.82 216.05l0 0 -232.66 0c-18.48,0 -31.32,-14.48 -28.52,-32.19l204.6 -1295.04c2.8,-17.7 20.22,-32.18 38.7,-32.18l232.66 0c18.49,0 31.32,14.48 28.52,32.18l-204.6 1295.04c-2.8,17.71 -20.21,32.19 -38.7,32.19z"/>
  <path class="fil1" d="M396.97 0l609.86 0c171.77,0 375.48,5.58 511.77,125.77 91.04,80.29 138.81,208.21 127.78,345.54 -37.4,465.69 -315.95,726.51 -689.49,726.51l-300.78 0c-51.19,0 -85.13,33.92 -99.57,125.8l-83.93 533.94c-5.44,34.64 -20.46,55.05 -47.87,57.51l-375.68 0c-41.69,0 -56.51,-31.88 -45.6,-100.95l270.52 -1712.8c10.84,-68.64 48.39,-101.32 122.99,-101.32z"/>
  <path class="fil2" d="M565.29 1269.79l106.5 -674.08c9.35,-59.2 41.73,-87.38 106.07,-87.38l609.26 0c100.86,0 182.34,15.75 246.2,44.77 -61.21,414.44 -329.27,644.72 -680.31,644.72l-300.78 0c-39.6,0 -69.18,20.23 -86.94,71.97z"/>
 </g>
</svg>
