<svg width="27" height="27" viewBox="0 0 27 27" fill="none" xmlns="http://www.w3.org/2000/svg">
<path d="M20.2849 18.6941L25.1033 23.5114L23.5114 25.1033L18.6941 20.2849C16.9017 21.7218 14.6723 22.5033 12.375 22.5C6.786 22.5 2.25 17.964 2.25 12.375C2.25 6.786 6.786 2.25 12.375 2.25C17.964 2.25 22.5 6.786 22.5 12.375C22.5033 14.6723 21.7218 16.9017 20.2849 18.6941ZM18.0281 17.8594C19.4559 16.3911 20.2532 14.423 20.25 12.375C20.25 8.0235 16.7254 4.5 12.375 4.5C8.0235 4.5 4.5 8.0235 4.5 12.375C4.5 16.7254 8.0235 20.25 12.375 20.25C14.423 20.2532 16.3911 19.4559 17.8594 18.0281L18.0281 17.8594Z" fill="#333333"/>
</svg>
