<svg width="25" height="25" viewBox="0 0 25 25" fill="none" xmlns="http://www.w3.org/2000/svg">
<path fill-rule="evenodd" clip-rule="evenodd" d="M10.7395 2.34375H14.2603C14.4864 2.34375 14.6833 2.34375 14.8687 2.37292C15.2298 2.43077 15.5724 2.57236 15.8691 2.78633C16.1657 3.00031 16.4082 3.28075 16.577 3.60521C16.6645 3.77187 16.726 3.95833 16.7978 4.17188L16.9135 4.52083C16.9932 4.80434 17.1668 5.05242 17.4057 5.22458C17.6447 5.39675 17.9349 5.48282 18.2291 5.46875H21.3541C21.5613 5.46875 21.76 5.55106 21.9065 5.69757C22.053 5.84409 22.1353 6.0428 22.1353 6.25C22.1353 6.4572 22.053 6.65591 21.9065 6.80243C21.76 6.94894 21.5613 7.03125 21.3541 7.03125H3.64575C3.43855 7.03125 3.23984 6.94894 3.09332 6.80243C2.94681 6.65591 2.8645 6.4572 2.8645 6.25C2.8645 6.0428 2.94681 5.84409 3.09332 5.69757C3.23984 5.55106 3.43855 5.46875 3.64575 5.46875H6.8645C7.14273 5.46208 7.41151 5.36643 7.63141 5.19583C7.85131 5.02524 8.01076 4.78868 8.08638 4.52083L8.20304 4.17188C8.27388 3.95833 8.33534 3.77187 8.42179 3.60521C8.59074 3.28062 8.83335 3.00011 9.13018 2.78612C9.42701 2.57213 9.76982 2.43062 10.1312 2.37292C10.3166 2.34375 10.5135 2.34375 10.7385 2.34375H10.7395ZM9.38325 5.46875C9.45639 5.32551 9.51737 5.17637 9.56554 5.02292L9.66971 4.71042C9.7645 4.42604 9.78638 4.36875 9.80825 4.32708C9.86449 4.21876 9.94532 4.12512 10.0443 4.05366C10.1432 3.98221 10.2575 3.93493 10.378 3.91562C10.5138 3.90416 10.6502 3.90103 10.7864 3.90625H14.2135C14.5135 3.90625 14.576 3.90833 14.6218 3.91667C14.7422 3.93586 14.8565 3.98298 14.9554 4.05425C15.0543 4.12552 15.1352 4.21895 15.1916 4.32708C15.2135 4.36875 15.2353 4.42604 15.3301 4.71146L15.4343 5.02396L15.4749 5.14062C15.5155 5.25521 15.5635 5.36354 15.6166 5.46875H9.38325Z" fill="black"/>
<path d="M6.16146 8.80208C6.14764 8.5953 6.05225 8.40247 5.89626 8.26601C5.74027 8.12956 5.53647 8.06066 5.32968 8.07448C5.1229 8.08829 4.93007 8.18368 4.79362 8.33967C4.65717 8.49566 4.58827 8.69946 4.60208 8.90625L5.08541 16.1479C5.17396 17.4833 5.24583 18.5625 5.41458 19.4104C5.59062 20.2906 5.88854 21.026 6.50521 21.6021C7.12083 22.1792 7.875 22.4281 8.76562 22.5437C9.62187 22.6562 10.7031 22.6562 12.0427 22.6562H12.9583C14.2969 22.6562 15.3792 22.6562 16.2354 22.5437C17.125 22.4281 17.8792 22.1792 18.4958 21.6021C19.1115 21.026 19.4094 20.2896 19.5854 19.4104C19.7542 18.5635 19.825 17.4833 19.9146 16.1479L20.3979 8.90625C20.4117 8.69946 20.3428 8.49566 20.2064 8.33967C20.0699 8.18368 19.8771 8.08829 19.6703 8.07448C19.4635 8.06066 19.2597 8.12956 19.1037 8.26601C18.9477 8.40247 18.8524 8.5953 18.8385 8.80208L18.3594 15.9896C18.2656 17.3927 18.199 18.3698 18.0531 19.1042C17.9104 19.8177 17.7125 20.1948 17.4281 20.4615C17.1427 20.7281 16.7531 20.901 16.0323 20.9948C15.2896 21.0917 14.3104 21.0937 12.9031 21.0937H12.0969C10.6906 21.0937 9.71146 21.0917 8.96771 20.9948C8.24687 20.901 7.85729 20.7281 7.57187 20.4615C7.2875 20.1948 7.08958 19.8177 6.94687 19.1052C6.80104 18.3698 6.73437 17.3927 6.64062 15.9885L6.16146 8.80208Z" fill="black"/>
<path d="M9.8176 10.6812C10.0237 10.6606 10.2295 10.7226 10.3899 10.8537C10.5503 10.9848 10.652 11.1741 10.6728 11.3802L11.1936 16.5885C11.2089 16.7918 11.1441 16.9929 11.0132 17.149C10.8823 17.3052 10.6955 17.404 10.4927 17.4244C10.29 17.4447 10.0873 17.3851 9.92787 17.2581C9.76847 17.1312 9.66498 16.947 9.63948 16.7448L9.11864 11.5365C9.09799 11.3304 9.16002 11.1245 9.29108 10.9642C9.42215 10.8038 9.61153 10.702 9.8176 10.6812ZM15.1822 10.6812C15.3881 10.702 15.5773 10.8037 15.7083 10.9638C15.8393 11.1239 15.9015 11.3295 15.8811 11.5354L15.3603 16.7437C15.3345 16.9455 15.2309 17.1293 15.0717 17.256C14.9125 17.3826 14.7102 17.4422 14.5077 17.4219C14.3053 17.4017 14.1187 17.3033 13.9877 17.1477C13.8567 16.9921 13.7916 16.7915 13.8061 16.5885L14.327 11.3802C14.3478 11.1743 14.4494 10.9851 14.6095 10.8541C14.7697 10.723 14.9763 10.6609 15.1822 10.6812Z" fill="black"/>
</svg>
